<svg width="787" height="200" viewBox="0 0 787 200" fill="none" xmlns="http://www.w3.org/2000/svg">
<path d="M136.76 64.8V144H125V98.16L125.84 76.32H125.72L101.6 144H90.92L66.8 76.32H66.68L67.64 98.16V144H55.76V64.8H74.84L90.8 110.64L96.32 129.48H96.56L102.2 110.64L118.04 64.8H136.76ZM211.171 84L184.891 151.08C182.251 158.04 179.251 162.88 175.891 165.6C172.531 168.4 168.211 169.8 162.931 169.8C159.971 169.8 157.291 169.44 154.891 168.72C152.491 168 150.371 166.96 148.531 165.6L151.651 155.64C154.531 158.2 158.011 159.48 162.091 159.48C164.251 159.48 166.171 158.92 167.851 157.8C169.611 156.68 171.171 154.36 172.531 150.84L175.171 144.36L168.811 129.48L150.091 84H164.491L177.811 121.68L181.291 132.96L185.251 120.6L197.851 84H211.171ZM272.858 64.8V144H260.018V64.8H272.858ZM316.766 145.2C311.806 145.2 307.326 143.96 303.326 141.48C299.326 139 296.126 135.44 293.726 130.8C291.406 126.16 290.246 120.6 290.246 114.12C290.246 107.4 291.486 101.72 293.966 97.08C296.446 92.44 299.766 88.92 303.926 86.52C308.086 84.04 312.646 82.8 317.606 82.8C321.926 82.8 325.686 83.84 328.886 85.92C332.166 87.92 334.606 90.6 336.206 93.96V57H349.046V144H337.646L336.926 132.6C335.326 136.6 332.686 139.72 329.006 141.96C325.326 144.12 321.246 145.2 316.766 145.2ZM319.526 134.88C324.566 134.88 328.606 132.96 331.646 129.12C334.686 125.28 336.206 120 336.206 113.28C336.206 107.04 334.686 102.16 331.646 98.64C328.686 95.04 324.806 93.24 320.006 93.24C314.646 93.24 310.486 95.08 307.526 98.76C304.566 102.44 303.086 107.52 303.086 114C303.086 120.48 304.526 125.6 307.406 129.36C310.286 133.04 314.326 134.88 319.526 134.88ZM395.36 145.2C389.36 145.2 384.08 143.96 379.52 141.48C375.04 139 371.52 135.44 368.96 130.8C366.4 126.08 365.12 120.48 365.12 114C365.12 107.52 366.36 101.96 368.84 97.32C371.4 92.6 374.88 89 379.28 86.52C383.76 84.04 388.88 82.8 394.64 82.8C400.48 82.8 405.44 84 409.52 86.4C413.6 88.8 416.72 92.08 418.88 96.24C421.04 100.4 422.12 105.12 422.12 110.4C422.12 111.92 422.08 113.32 422 114.6C421.92 115.88 421.8 116.96 421.64 117.84H377.72C378.28 123.44 380.08 127.72 383.12 130.68C386.24 133.56 390.24 135 395.12 135C399.12 135 402.36 134.24 404.84 132.72C407.32 131.2 409.28 129.08 410.72 126.36L420.92 131.16C418.84 135.56 415.52 139 410.96 141.48C406.48 143.96 401.28 145.2 395.36 145.2ZM394.4 93C390 93 386.36 94.28 383.48 96.84C380.68 99.4 378.88 103.12 378.08 108H409.64C409.32 103.2 407.8 99.52 405.08 96.96C402.36 94.32 398.8 93 394.4 93ZM473.015 105.48C473.015 101.48 471.895 98.4 469.655 96.24C467.495 94 464.495 92.88 460.655 92.88C457.055 92.88 453.935 93.72 451.295 95.4C448.735 97.08 446.895 99.8 445.775 103.56L434.975 99C436.495 94.12 439.455 90.2 443.855 87.24C448.335 84.28 454.095 82.8 461.135 82.8C465.855 82.8 470.055 83.6 473.735 85.2C477.495 86.72 480.415 89.08 482.495 92.28C484.655 95.4 485.735 99.36 485.735 104.16V130.92C485.735 133.88 487.215 135.36 490.175 135.36C491.615 135.36 493.015 135.16 494.375 134.76L493.655 143.64C491.815 144.52 489.495 144.96 486.695 144.96C483.495 144.96 480.735 144.24 478.415 142.8C476.095 141.36 474.535 139.2 473.735 136.32C471.815 139.28 469.055 141.52 465.455 143.04C461.855 144.48 458.255 145.2 454.655 145.2C448.975 145.2 444.255 143.84 440.495 141.12C436.735 138.4 434.855 134.32 434.855 128.88C434.855 124.48 436.295 120.84 439.175 117.96C442.135 115.08 446.295 113.08 451.655 111.96L473.015 107.76V105.48ZM447.815 127.92C447.815 130.16 448.655 131.96 450.335 133.32C452.095 134.6 454.415 135.24 457.295 135.24C460.015 135.24 462.575 134.8 464.975 133.92C467.375 133.04 469.295 131.6 470.735 129.6C472.255 127.6 473.015 125 473.015 121.8V116.76L457.895 119.88C454.455 120.52 451.895 121.44 450.215 122.64C448.615 123.84 447.815 125.6 447.815 127.92ZM529.573 145.2C523.573 145.2 518.093 144.04 513.133 141.72C508.173 139.4 504.253 136.12 501.373 131.88L510.253 124.2C512.013 127.48 514.533 130.12 517.813 132.12C521.173 134.04 525.173 135 529.813 135C533.493 135 536.413 134.36 538.573 133.08C540.733 131.8 541.813 130 541.813 127.68C541.813 126.16 541.293 124.84 540.253 123.72C539.293 122.52 537.413 121.6 534.613 120.96L522.013 118.32C515.613 117.04 511.053 114.96 508.333 112.08C505.613 109.2 504.253 105.6 504.253 101.28C504.253 98 505.213 94.96 507.133 92.16C509.133 89.36 511.973 87.12 515.653 85.44C519.333 83.68 523.773 82.8 528.973 82.8C534.893 82.8 539.973 83.88 544.213 86.04C548.533 88.12 551.813 91.12 554.053 95.04L545.173 102.48C543.573 99.28 541.293 96.92 538.333 95.4C535.453 93.8 532.413 93 529.213 93C525.293 93 522.253 93.72 520.093 95.16C518.013 96.52 516.973 98.32 516.973 100.56C516.973 102.08 517.573 103.48 518.773 104.76C519.973 105.96 522.133 106.88 525.253 107.52L538.933 110.4C544.693 111.52 548.733 113.44 551.053 116.16C553.453 118.8 554.653 122.04 554.653 125.88C554.653 131.64 552.413 136.32 547.933 139.92C543.453 143.44 537.333 145.2 529.573 145.2Z" fill="#00F3E5"/>
<path d="M666.45 43.95C666.45 41.6559 665.507 39.4557 663.829 37.8335C662.15 36.2113 659.874 35.3 657.5 35.3C655.126 35.3 652.85 36.2113 651.171 37.8335C649.493 39.4557 648.55 41.6559 648.55 43.95V52.6C648.55 54.8941 649.493 57.0943 651.171 58.7165C652.85 60.3387 655.126 61.25 657.5 61.25C659.874 61.25 662.15 60.3387 663.829 58.7165C665.507 57.0943 666.45 54.8941 666.45 52.6V43.95Z" fill="#FFF500"/>
<path d="M708.13 67.7981C709.76 66.1666 710.663 63.9816 710.642 61.7136C710.622 59.4456 709.681 57.2761 708.021 55.6723C706.362 54.0685 704.117 53.1588 701.77 53.1391C699.424 53.1194 697.163 53.9913 695.475 55.567L689.147 61.6825C687.517 63.3139 686.615 65.4989 686.635 67.7669C686.656 70.0349 687.597 72.2045 689.256 73.8082C690.916 75.412 693.16 76.3217 695.507 76.3414C697.854 76.3611 700.115 75.4893 701.802 73.9136L708.13 67.7981Z" fill="#FFF500"/>
<path d="M729.1 104.5C729.1 106.794 728.157 108.994 726.479 110.616C724.8 112.239 722.524 113.15 720.15 113.15H711.2C708.826 113.15 706.55 112.239 704.871 110.616C703.193 108.994 702.25 106.794 702.25 104.5C702.25 102.206 703.193 100.006 704.871 98.3835C706.55 96.7613 708.826 95.85 711.2 95.85H720.15C722.524 95.85 724.8 96.7613 726.479 98.3835C728.157 100.006 729.1 102.206 729.1 104.5Z" fill="#FFF500"/>
<path d="M613.197 73.9136C614.023 74.7398 615.011 75.3987 616.103 75.8521C617.195 76.3054 618.369 76.544 619.557 76.554C620.746 76.564 621.924 76.3451 623.024 75.9102C624.124 75.4753 625.123 74.833 625.964 74.0208C626.804 73.2086 627.469 72.2429 627.919 71.1798C628.369 70.1167 628.595 68.9777 628.585 67.8292C628.574 66.6806 628.328 65.5456 627.858 64.4903C627.389 63.4349 626.708 62.4804 625.853 61.6825L619.525 55.567C617.837 53.9913 615.576 53.1194 613.23 53.1391C610.883 53.1588 608.638 54.0685 606.979 55.6723C605.319 57.2761 604.378 59.4456 604.358 61.7136C604.337 63.9816 605.24 66.1666 606.87 67.798L613.197 73.9136V73.9136Z" fill="#FFF500"/>
<path d="M612.75 104.5C612.75 106.794 611.807 108.994 610.129 110.616C608.45 112.239 606.174 113.15 603.8 113.15H594.85C592.476 113.15 590.2 112.239 588.521 110.616C586.843 108.994 585.9 106.794 585.9 104.5C585.9 102.206 586.843 100.006 588.521 98.3835C590.2 96.7613 592.476 95.85 594.85 95.85H603.8C606.174 95.85 608.45 96.7613 610.129 98.3835C611.807 100.006 612.75 102.206 612.75 104.5Z" fill="#FFF500"/>
<path d="M639.6 156.4V147.75H675.4V156.4C675.4 160.988 673.514 165.389 670.157 168.633C666.8 171.877 662.247 173.7 657.5 173.7C652.753 173.7 648.2 171.877 644.843 168.633C641.486 165.389 639.6 160.988 639.6 156.4V156.4Z" fill="#00F3E5"/>
<path d="M675.4 139.1C675.534 136.159 677.262 133.512 679.669 131.67C685.511 127.217 689.772 121.116 691.86 114.215C693.949 107.314 693.761 99.9557 691.323 93.1626C688.885 86.3695 684.318 80.4792 678.256 76.3106C672.194 72.1419 664.94 69.9019 657.5 69.9019C650.06 69.9019 642.806 72.1419 636.744 76.3106C630.683 80.4792 626.115 86.3695 623.677 93.1626C621.239 99.9557 621.051 107.314 623.14 114.215C625.228 121.116 629.489 127.217 635.331 131.67C637.747 133.512 639.466 136.159 639.591 139.1H675.409H675.4Z" fill="#00F3E5"/>
</svg>
