<svg width="699" height="148" viewBox="0 0 699 148" fill="none" xmlns="http://www.w3.org/2000/svg">
<path d="M100.76 32.8V112H89V66.16L89.84 44.32H89.72L65.6 112H54.92L30.8 44.32H30.68L31.64 66.16V112H19.76V32.8H38.84L54.8 78.64L60.32 97.48H60.56L66.2 78.64L82.04 32.8H100.76ZM175.171 52L148.891 119.08C146.251 126.04 143.251 130.88 139.891 133.6C136.531 136.4 132.211 137.8 126.931 137.8C123.971 137.8 121.291 137.44 118.891 136.72C116.491 136 114.371 134.96 112.531 133.6L115.651 123.64C118.531 126.2 122.011 127.48 126.091 127.48C128.251 127.48 130.171 126.92 131.851 125.8C133.611 124.68 135.171 122.36 136.531 118.84L139.171 112.36L132.811 97.48L114.091 52H128.491L141.811 89.68L145.291 100.96L149.251 88.6L161.851 52H175.171ZM236.858 32.8V112H224.018V32.8H236.858ZM280.766 113.2C275.806 113.2 271.326 111.96 267.326 109.48C263.326 107 260.126 103.44 257.726 98.8C255.406 94.16 254.246 88.6 254.246 82.12C254.246 75.4 255.486 69.72 257.966 65.08C260.446 60.44 263.766 56.92 267.926 54.52C272.086 52.04 276.646 50.8 281.606 50.8C285.926 50.8 289.686 51.84 292.886 53.92C296.166 55.92 298.606 58.6 300.206 61.96V25H313.046V112H301.646L300.926 100.6C299.326 104.6 296.686 107.72 293.006 109.96C289.326 112.12 285.246 113.2 280.766 113.2ZM283.526 102.88C288.566 102.88 292.606 100.96 295.646 97.12C298.686 93.28 300.206 88 300.206 81.28C300.206 75.04 298.686 70.16 295.646 66.64C292.686 63.04 288.806 61.24 284.006 61.24C278.646 61.24 274.486 63.08 271.526 66.76C268.566 70.44 267.086 75.52 267.086 82C267.086 88.48 268.526 93.6 271.406 97.36C274.286 101.04 278.326 102.88 283.526 102.88ZM359.36 113.2C353.36 113.2 348.08 111.96 343.52 109.48C339.04 107 335.52 103.44 332.96 98.8C330.4 94.08 329.12 88.48 329.12 82C329.12 75.52 330.36 69.96 332.84 65.32C335.4 60.6 338.88 57 343.28 54.52C347.76 52.04 352.88 50.8 358.64 50.8C364.48 50.8 369.44 52 373.52 54.4C377.6 56.8 380.72 60.08 382.88 64.24C385.04 68.4 386.12 73.12 386.12 78.4C386.12 79.92 386.08 81.32 386 82.6C385.92 83.88 385.8 84.96 385.64 85.84H341.72C342.28 91.44 344.08 95.72 347.12 98.68C350.24 101.56 354.24 103 359.12 103C363.12 103 366.36 102.24 368.84 100.72C371.32 99.2 373.28 97.08 374.72 94.36L384.92 99.16C382.84 103.56 379.52 107 374.96 109.48C370.48 111.96 365.28 113.2 359.36 113.2ZM358.4 61C354 61 350.36 62.28 347.48 64.84C344.68 67.4 342.88 71.12 342.08 76H373.64C373.32 71.2 371.8 67.52 369.08 64.96C366.36 62.32 362.8 61 358.4 61ZM437.015 73.48C437.015 69.48 435.895 66.4 433.655 64.24C431.495 62 428.495 60.88 424.655 60.88C421.055 60.88 417.935 61.72 415.295 63.4C412.735 65.08 410.895 67.8 409.775 71.56L398.975 67C400.495 62.12 403.455 58.2 407.855 55.24C412.335 52.28 418.095 50.8 425.135 50.8C429.855 50.8 434.055 51.6 437.735 53.2C441.495 54.72 444.415 57.08 446.495 60.28C448.655 63.4 449.735 67.36 449.735 72.16V98.92C449.735 101.88 451.215 103.36 454.175 103.36C455.615 103.36 457.015 103.16 458.375 102.76L457.655 111.64C455.815 112.52 453.495 112.96 450.695 112.96C447.495 112.96 444.735 112.24 442.415 110.8C440.095 109.36 438.535 107.2 437.735 104.32C435.815 107.28 433.055 109.52 429.455 111.04C425.855 112.48 422.255 113.2 418.655 113.2C412.975 113.2 408.255 111.84 404.495 109.12C400.735 106.4 398.855 102.32 398.855 96.88C398.855 92.48 400.295 88.84 403.175 85.96C406.135 83.08 410.295 81.08 415.655 79.96L437.015 75.76V73.48ZM411.815 95.92C411.815 98.16 412.655 99.96 414.335 101.32C416.095 102.6 418.415 103.24 421.295 103.24C424.015 103.24 426.575 102.8 428.975 101.92C431.375 101.04 433.295 99.6 434.735 97.6C436.255 95.6 437.015 93 437.015 89.8V84.76L421.895 87.88C418.455 88.52 415.895 89.44 414.215 90.64C412.615 91.84 411.815 93.6 411.815 95.92ZM493.573 113.2C487.573 113.2 482.093 112.04 477.133 109.72C472.173 107.4 468.253 104.12 465.373 99.88L474.253 92.2C476.013 95.48 478.533 98.12 481.813 100.12C485.173 102.04 489.173 103 493.813 103C497.493 103 500.413 102.36 502.573 101.08C504.733 99.8 505.813 98 505.813 95.68C505.813 94.16 505.293 92.84 504.253 91.72C503.293 90.52 501.413 89.6 498.613 88.96L486.013 86.32C479.613 85.04 475.053 82.96 472.333 80.08C469.613 77.2 468.253 73.6 468.253 69.28C468.253 66 469.213 62.96 471.133 60.16C473.133 57.36 475.973 55.12 479.653 53.44C483.333 51.68 487.773 50.8 492.973 50.8C498.893 50.8 503.973 51.88 508.213 54.04C512.533 56.12 515.813 59.12 518.053 63.04L509.173 70.48C507.573 67.28 505.293 64.92 502.333 63.4C499.453 61.8 496.413 61 493.213 61C489.293 61 486.253 61.72 484.093 63.16C482.013 64.52 480.973 66.32 480.973 68.56C480.973 70.08 481.573 71.48 482.773 72.76C483.973 73.96 486.133 74.88 489.253 75.52L502.933 78.4C508.693 79.52 512.733 81.44 515.053 84.16C517.453 86.8 518.653 90.04 518.653 93.88C518.653 99.64 516.413 104.32 511.933 107.92C507.453 111.44 501.333 113.2 493.573 113.2Z" fill="#00F3E5"/>
<path d="M612.878 15.9549C612.878 13.9923 612.008 12.1101 610.461 10.7223C608.914 9.33457 606.816 8.55493 604.628 8.55493C602.44 8.55493 600.341 9.33457 598.794 10.7223C597.247 12.1101 596.378 13.9923 596.378 15.9549V23.3549C596.378 25.3175 597.247 27.1998 598.794 28.5875C600.341 29.9753 602.44 30.7549 604.628 30.7549C606.816 30.7549 608.914 29.9753 610.461 28.5875C612.008 27.1998 612.878 25.3175 612.878 23.3549V15.9549Z" fill="#FFF500"/>
<path d="M651.298 36.3567C652.801 34.9611 653.632 33.0918 653.613 31.1516C653.595 29.2113 652.727 27.3553 651.197 25.9833C649.668 24.6112 647.598 23.833 645.435 23.8161C643.272 23.7993 641.188 24.5452 639.632 25.8931L633.8 31.1249C632.297 32.5206 631.465 34.3898 631.484 36.3301C631.503 38.2704 632.37 40.1264 633.9 41.4984C635.43 42.8704 637.499 43.6487 639.662 43.6655C641.825 43.6824 643.909 42.9365 645.465 41.5885L651.298 36.3567Z" fill="#FFF500"/>
<path d="M670.628 67.7549C670.628 69.7175 669.758 71.5998 668.211 72.9875C666.664 74.3753 664.566 75.1549 662.378 75.1549H654.128C651.94 75.1549 649.841 74.3753 648.294 72.9875C646.747 71.5998 645.878 69.7175 645.878 67.7549C645.878 65.7923 646.747 63.9101 648.294 62.5223C649.841 61.1346 651.94 60.3549 654.128 60.3549H662.378C664.566 60.3549 666.664 61.1346 668.211 62.5223C669.758 63.9101 670.628 65.7923 670.628 67.7549Z" fill="#FFF500"/>
<path d="M563.79 41.5885C564.551 42.2953 565.461 42.859 566.468 43.2469C567.474 43.6347 568.557 43.8388 569.652 43.8474C570.748 43.8559 571.834 43.6687 572.848 43.2966C573.862 42.9245 574.783 42.3751 575.558 41.6802C576.332 40.9854 576.945 40.1592 577.36 39.2498C577.775 38.3404 577.983 37.3659 577.974 36.3834C577.964 35.4008 577.737 34.4298 577.304 33.5269C576.872 32.6241 576.243 31.8076 575.456 31.1249L569.623 25.8931C568.067 24.5452 565.983 23.7993 563.82 23.8161C561.657 23.833 559.587 24.6112 558.058 25.9833C556.528 27.3553 555.661 29.2113 555.642 31.1516C555.623 33.0918 556.454 34.9611 557.957 36.3567L563.79 41.5885V41.5885Z" fill="#FFF500"/>
<path d="M563.378 67.7549C563.378 69.7175 562.508 71.5998 560.961 72.9875C559.414 74.3753 557.316 75.1549 555.128 75.1549H546.878C544.69 75.1549 542.591 74.3753 541.044 72.9875C539.497 71.5998 538.628 69.7175 538.628 67.7549C538.628 65.7923 539.497 63.9101 541.044 62.5223C542.591 61.1346 544.69 60.3549 546.878 60.3549H555.128C557.316 60.3549 559.414 61.1346 560.961 62.5223C562.508 63.9101 563.378 65.7923 563.378 67.7549Z" fill="#FFF500"/>
<path d="M588.128 112.155V104.755H621.128V112.155C621.128 116.08 619.389 119.845 616.295 122.62C613.2 125.396 609.004 126.955 604.628 126.955C600.251 126.955 596.055 125.396 592.96 122.62C589.866 119.845 588.128 116.08 588.128 112.155V112.155Z" fill="#00F3E5"/>
<path d="M621.128 97.3549C621.251 94.8389 622.844 92.5745 625.063 90.9983C630.447 87.1892 634.375 81.97 636.301 76.0662C638.226 70.1624 638.053 63.8673 635.805 58.0559C633.558 52.2445 629.348 47.2054 623.76 43.6391C618.173 40.0728 611.485 38.1565 604.628 38.1565C597.77 38.1565 591.083 40.0728 585.495 43.6391C579.908 47.2054 575.697 52.2445 573.45 58.0559C571.203 63.8673 571.029 70.1624 572.955 76.0662C574.88 81.97 578.808 87.1892 584.192 90.9983C586.42 92.5745 588.004 94.8389 588.119 97.3549H621.136H621.128Z" fill="#00F3E5"/>
</svg>
